<svg xmlns="http://www.w3.org/2000/svg" version="1.1" xmlns:xlink="http://www.w3.org/1999/xlink" xmlns:svgjs="http://svgjs.dev/svgjs" width="1920" height="1080" preserveAspectRatio="none" viewBox="0 0 1920 1080"><g mask="url(&quot;#SvgjsMask1024&quot;)" fill="none"><rect width="1920" height="1080" x="0" y="0" fill="url(&quot;#SvgjsLinearGradient1025&quot;)"></rect><path d="M327 1004L882 1559" stroke-width="8" stroke="url(&quot;#SvgjsLinearGradient1026&quot;)" stroke-linecap="round" class="TopLeft"></path><path d="M729 850L-32 89" stroke-width="10" stroke="url(&quot;#SvgjsLinearGradient1027&quot;)" stroke-linecap="round" class="BottomRight"></path><path d="M145 845L800 1500" stroke-width="8" stroke="url(&quot;#SvgjsLinearGradient1027&quot;)" stroke-linecap="round" class="BottomRight"></path><path d="M1108 958L1857 1707" stroke-width="6" stroke="url(&quot;#SvgjsLinearGradient1026&quot;)" stroke-linecap="round" class="TopLeft"></path><path d="M1242 376L692 -174" stroke-width="6" stroke="url(&quot;#SvgjsLinearGradient1027&quot;)" stroke-linecap="round" class="BottomRight"></path><path d="M782 31L249 -502" stroke-width="6" stroke="url(&quot;#SvgjsLinearGradient1027&quot;)" stroke-linecap="round" class="BottomRight"></path><path d="M923 72L274 -577" stroke-width="6" stroke="url(&quot;#SvgjsLinearGradient1027&quot;)" stroke-linecap="round" class="BottomRight"></path><path d="M303 741L-243 195" stroke-width="10" stroke="url(&quot;#SvgjsLinearGradient1027&quot;)" stroke-linecap="round" class="BottomRight"></path><path d="M1641 792L1959 1110" stroke-width="6" stroke="url(&quot;#SvgjsLinearGradient1026&quot;)" stroke-linecap="round" class="TopLeft"></path><path d="M824 1018L1327 1521" stroke-width="6" stroke="url(&quot;#SvgjsLinearGradient1026&quot;)" stroke-linecap="round" class="TopLeft"></path><path d="M1832 474L1398 40" stroke-width="6" stroke="url(&quot;#SvgjsLinearGradient1026&quot;)" stroke-linecap="round" class="TopLeft"></path><path d="M1793 861L2290 1358" stroke-width="8" stroke="url(&quot;#SvgjsLinearGradient1027&quot;)" stroke-linecap="round" class="BottomRight"></path><path d="M123 974L520 1371" stroke-width="10" stroke="url(&quot;#SvgjsLinearGradient1027&quot;)" stroke-linecap="round" class="BottomRight"></path><path d="M1887 190L1143 -554" stroke-width="10" stroke="url(&quot;#SvgjsLinearGradient1026&quot;)" stroke-linecap="round" class="TopLeft"></path><path d="M1227 838L949 560" stroke-width="10" stroke="url(&quot;#SvgjsLinearGradient1026&quot;)" stroke-linecap="round" class="TopLeft"></path><path d="M1374 556L1889 1071" stroke-width="6" stroke="url(&quot;#SvgjsLinearGradient1027&quot;)" stroke-linecap="round" class="BottomRight"></path><path d="M1338 856L1810 1328" stroke-width="6" stroke="url(&quot;#SvgjsLinearGradient1027&quot;)" stroke-linecap="round" class="BottomRight"></path><path d="M1714 929L2340 1555" stroke-width="6" stroke="url(&quot;#SvgjsLinearGradient1026&quot;)" stroke-linecap="round" class="TopLeft"></path><path d="M662 170L976 484" stroke-width="6" stroke="url(&quot;#SvgjsLinearGradient1027&quot;)" stroke-linecap="round" class="BottomRight"></path><path d="M912 1053L293 434" stroke-width="10" stroke="url(&quot;#SvgjsLinearGradient1027&quot;)" stroke-linecap="round" class="BottomRight"></path><path d="M478 600L-276 -154" stroke-width="10" stroke="url(&quot;#SvgjsLinearGradient1026&quot;)" stroke-linecap="round" class="TopLeft"></path><path d="M390 390L-364 -364" stroke-width="8" stroke="url(&quot;#SvgjsLinearGradient1027&quot;)" stroke-linecap="round" class="BottomRight"></path><path d="M154 625L514 985" stroke-width="8" stroke="url(&quot;#SvgjsLinearGradient1027&quot;)" stroke-linecap="round" class="BottomRight"></path><path d="M1900 711L2605 1416" stroke-width="10" stroke="url(&quot;#SvgjsLinearGradient1026&quot;)" stroke-linecap="round" class="TopLeft"></path><path d="M1778 469L2436 1127" stroke-width="10" stroke="url(&quot;#SvgjsLinearGradient1026&quot;)" stroke-linecap="round" class="TopLeft"></path><path d="M1797 475L2364 1042" stroke-width="10" stroke="url(&quot;#SvgjsLinearGradient1026&quot;)" stroke-linecap="round" class="TopLeft"></path><path d="M1360 801L1808 1249" stroke-width="10" stroke="url(&quot;#SvgjsLinearGradient1027&quot;)" stroke-linecap="round" class="BottomRight"></path><path d="M1511 323L1888 700" stroke-width="6" stroke="url(&quot;#SvgjsLinearGradient1027&quot;)" stroke-linecap="round" class="BottomRight"></path><path d="M717 610L398 291" stroke-width="8" stroke="url(&quot;#SvgjsLinearGradient1026&quot;)" stroke-linecap="round" class="TopLeft"></path><path d="M1347 894L1053 600" stroke-width="10" stroke="url(&quot;#SvgjsLinearGradient1027&quot;)" stroke-linecap="round" class="BottomRight"></path><path d="M798 1005L167 374" stroke-width="8" stroke="url(&quot;#SvgjsLinearGradient1026&quot;)" stroke-linecap="round" class="TopLeft"></path><path d="M557 558L1131 1132" stroke-width="10" stroke="url(&quot;#SvgjsLinearGradient1027&quot;)" stroke-linecap="round" class="BottomRight"></path><path d="M1855 447L2500 1092" stroke-width="8" stroke="url(&quot;#SvgjsLinearGradient1026&quot;)" stroke-linecap="round" class="TopLeft"></path><path d="M972 33L1383 444" stroke-width="6" stroke="url(&quot;#SvgjsLinearGradient1026&quot;)" stroke-linecap="round" class="TopLeft"></path><path d="M1303 68L1926 691" stroke-width="10" stroke="url(&quot;#SvgjsLinearGradient1027&quot;)" stroke-linecap="round" class="BottomRight"></path><path d="M390 1034L996 1640" stroke-width="8" stroke="url(&quot;#SvgjsLinearGradient1026&quot;)" stroke-linecap="round" class="TopLeft"></path><path d="M1737 583L2293 1139" stroke-width="6" stroke="url(&quot;#SvgjsLinearGradient1027&quot;)" stroke-linecap="round" class="BottomRight"></path><path d="M462 785L1174 1497" stroke-width="6" stroke="url(&quot;#SvgjsLinearGradient1026&quot;)" stroke-linecap="round" class="TopLeft"></path><path d="M1538 88L1205 -245" stroke-width="10" stroke="url(&quot;#SvgjsLinearGradient1026&quot;)" stroke-linecap="round" class="TopLeft"></path><path d="M1611 683L1294 366" stroke-width="10" stroke="url(&quot;#SvgjsLinearGradient1027&quot;)" stroke-linecap="round" class="BottomRight"></path><path d="M1162 115L508 -539" stroke-width="6" stroke="url(&quot;#SvgjsLinearGradient1026&quot;)" stroke-linecap="round" class="TopLeft"></path><path d="M919 18L485 -416" stroke-width="8" stroke="url(&quot;#SvgjsLinearGradient1027&quot;)" stroke-linecap="round" class="BottomRight"></path><path d="M875 918L1379 1422" stroke-width="10" stroke="url(&quot;#SvgjsLinearGradient1027&quot;)" stroke-linecap="round" class="BottomRight"></path><path d="M1807 229L1170 -408" stroke-width="6" stroke="url(&quot;#SvgjsLinearGradient1026&quot;)" stroke-linecap="round" class="TopLeft"></path><path d="M1548 361L1859 672" stroke-width="6" stroke="url(&quot;#SvgjsLinearGradient1027&quot;)" stroke-linecap="round" class="BottomRight"></path><path d="M233 880L573 1220" stroke-width="10" stroke="url(&quot;#SvgjsLinearGradient1027&quot;)" stroke-linecap="round" class="BottomRight"></path><path d="M1297 1053L985 741" stroke-width="8" stroke="url(&quot;#SvgjsLinearGradient1027&quot;)" stroke-linecap="round" class="BottomRight"></path><path d="M664 32L1394 762" stroke-width="10" stroke="url(&quot;#SvgjsLinearGradient1026&quot;)" stroke-linecap="round" class="TopLeft"></path><path d="M625 941L1144 1460" stroke-width="6" stroke="url(&quot;#SvgjsLinearGradient1026&quot;)" stroke-linecap="round" class="TopLeft"></path><path d="M1848 1048L1518 718" stroke-width="8" stroke="url(&quot;#SvgjsLinearGradient1026&quot;)" stroke-linecap="round" class="TopLeft"></path><path d="M1630 974L2360 1704" stroke-width="6" stroke="url(&quot;#SvgjsLinearGradient1026&quot;)" stroke-linecap="round" class="TopLeft"></path><path d="M1880 219L1609 -52" stroke-width="8" stroke="url(&quot;#SvgjsLinearGradient1026&quot;)" stroke-linecap="round" class="TopLeft"></path><path d="M1865 738L2579 1452" stroke-width="10" stroke="url(&quot;#SvgjsLinearGradient1027&quot;)" stroke-linecap="round" class="BottomRight"></path><path d="M1815 912L1250 347" stroke-width="8" stroke="url(&quot;#SvgjsLinearGradient1027&quot;)" stroke-linecap="round" class="BottomRight"></path><path d="M1120 85L808 -227" stroke-width="10" stroke="url(&quot;#SvgjsLinearGradient1027&quot;)" stroke-linecap="round" class="BottomRight"></path><path d="M1873 120L1580 -173" stroke-width="8" stroke="url(&quot;#SvgjsLinearGradient1027&quot;)" stroke-linecap="round" class="BottomRight"></path></g><defs><mask id="SvgjsMask1024"><rect width="1920" height="1080" fill="#ffffff"></rect></mask><linearGradient x1="10.94%" y1="-19.44%" x2="89.06%" y2="119.44%" gradientUnits="userSpaceOnUse" id="SvgjsLinearGradient1025"><stop stop-color="rgba(140, 18, 41, 1)" offset="0"></stop><stop stop-color="rgba(167, 13, 155, 1)" offset="1"></stop></linearGradient><linearGradient x1="100%" y1="100%" x2="0%" y2="0%" id="SvgjsLinearGradient1026"><stop stop-color="rgba(255, 255, 255, 0)" offset="0"></stop><stop stop-color="rgba(255, 255, 255, 1)" offset="1"></stop></linearGradient><linearGradient x1="0%" y1="0%" x2="100%" y2="100%" id="SvgjsLinearGradient1027"><stop stop-color="rgba(255, 255, 255, 0)" offset="0"></stop><stop stop-color="rgba(255, 255, 255, 1)" offset="1"></stop></linearGradient></defs></svg>